<svg width="193" height="47" viewBox="0 0 193 47" fill="none" xmlns="http://www.w3.org/2000/svg">
<path d="M23.1971 15.774V41.5536C23.1971 42.1364 23.6539 42.6359 24.2249 42.6359H31.5624C32.5902 42.9689 34.7314 43.8846 34.9027 45.4664C34.76 43.8569 36.9584 42.9689 38.0718 42.6359H44.4385C45.0095 42.6359 45.4663 42.1641 45.4663 41.5536V15.774H23.1971Z" fill="#EF5600"/>
<path d="M21.0554 4.93683L22.5727 5.85878L23.9149 4.63943L23.5356 6.42382L25.0529 7.34577L23.3021 7.5242L22.8936 9.27886L22.1934 7.61342L20.4135 7.79187L21.7557 6.60227L21.0554 4.93683Z" fill="#EF5600"/>
<path d="M26.7813 1.85577L27.9033 2.99242L29.6317 2.52848L28.5704 3.68834L29.6923 4.825L27.9033 4.40746L26.8419 5.56731L26.8116 4.15228L25.0529 3.71154L26.8116 3.27079L26.7813 1.85577Z" fill="#EF5600"/>
<path d="M33.8532 0L34.4076 1.7703H36.1875L34.7577 2.86912L35.3121 4.63942L33.8532 3.54062L32.4234 4.63942L32.9778 2.86912L31.5481 1.7703H33.328L33.8532 0Z" fill="#EF5600"/>
<path d="M41.0963 0.927887L40.9766 2.69668L42.6827 3.36359L40.9167 3.79854L40.797 5.56731L39.8093 4.05951L38.0433 4.49446L39.2106 3.13162L38.2229 1.6528L39.929 2.29072L41.0963 0.927887Z" fill="#EF5600"/>
<path d="M46.8993 3.71155L46.635 5.47336L48.25 6.29553L46.4882 6.58916L46.2239 8.35097L45.3724 6.76534L43.6106 7.05897L44.8732 5.79635L44.051 4.18136L45.6366 5.00353L46.8993 3.71155Z" fill="#EF5600"/>
<path d="M33.4039 37.1154H28.7644V39.899H33.4039V37.1154Z" fill="#B14B00"/>
<path d="M34.3317 39.899H29.6923V41.7548H34.3317V39.899Z" fill="#B14B00"/>
<path d="M29.6923 39.899H25.0529V41.7548H29.6923V39.899Z" fill="#B14B00"/>
<path d="M38.9711 39.899H34.3317V41.7548H38.9711V39.899Z" fill="#B14B00"/>
<path d="M43.6106 37.1154H38.9712V39.899H43.6106V37.1154Z" fill="#B14B00"/>
<path d="M40.8269 35.2596H36.1875V37.1154H40.8269V35.2596Z" fill="#B14B00"/>
<path d="M27.8365 37.1154H23.1971V39.899H27.8365V37.1154Z" fill="#B14B00"/>
<path d="M44.5385 39.899H39.899V41.7548H44.5385V39.899Z" fill="#B14B00"/>
<path d="M38.0433 37.1154H33.4038V39.899H38.0433V37.1154Z" fill="#B14B00"/>
<path d="M30.6636 24.125C30.3876 24.125 30.0288 24.125 29.67 24.125V25.5734H28.6763V24.125C28.3451 24.125 28.0415 24.125 27.7931 24.125C26.9927 24.125 26.6891 24.7285 27.0755 25.4829C27.4619 26.2373 28.1243 27.4443 28.5107 28.1986C28.8972 28.953 29.5596 28.953 29.946 28.1986C30.3324 27.4443 30.9949 26.2373 31.3813 25.4829C31.7677 24.7285 31.4641 24.125 30.6636 24.125Z" fill="#B14B00"/>
<path d="M29.2284 19.4856C28.9661 19.4856 28.7644 19.7742 28.7644 20.1495V22.4878C28.7644 22.7476 28.8653 22.9497 29.0267 23.0651V25.9808H29.4301V23.0651C29.5713 22.9497 29.6923 22.7476 29.6923 22.4878V20.1495C29.6721 19.7742 29.4704 19.4856 29.2284 19.4856Z" fill="#B14B00"/>
<path d="M37.1154 20.1279C37.1154 20.2885 37.301 20.4134 37.5484 20.4134H37.6103C37.8371 20.4134 38.0433 20.2885 38.0433 20.1279V19.7711C38.0433 19.6105 37.8577 19.4856 37.6103 19.4856H37.5484C37.3216 19.4856 37.1154 19.6105 37.1154 19.7711V20.1279Z" fill="#B14B00"/>
<path d="M38.4112 21.6713C38.4112 20.9674 36.7187 21.4818 37.3232 22.3482C37.9277 23.1874 39.4993 23.6747 39.7713 24.9742C40.0434 26.2466 39.1668 26.9776 38.0788 27.0318C36.9907 27.0859 35.9026 26.2466 36.3258 25.5698C36.9605 24.5411 35.7817 24.4869 35.3888 25.2179C34.9959 25.9488 35.3586 28.7644 38.4717 28.7644C42.2195 28.7644 42.4009 25.3532 40.799 23.9455C39.4993 22.7542 38.4112 22.4565 38.4112 21.6713Z" fill="#B14B00"/>
<path d="M90.9389 31.4405C90.2302 32.0358 89.4364 32.3193 88.5575 32.3193H88.0189V30.023H88.5575C88.9261 30.023 89.2379 29.9096 89.4931 29.6544C89.7482 29.3993 89.89 29.0874 89.89 28.6905C89.89 28.2936 89.7482 27.9817 89.4931 27.7266C89.2379 27.4714 88.9261 27.358 88.5575 27.358H87.4235V34.6441H84.872V27.3864L87.4235 25.09H88.5859C89.4647 25.09 90.2585 25.4019 90.9673 25.9972C91.7895 26.706 92.1864 27.6132 92.1864 28.7188C92.1864 29.8245 91.7895 30.7317 90.9389 31.4405Z" fill="#EF5600"/>
<path d="M101.145 26.1957C102.024 27.0745 102.478 28.2936 102.478 29.8245C102.478 31.3554 102.024 32.5461 101.145 33.4534C100.295 34.3039 99.2172 34.7291 97.8848 34.7291C96.5523 34.7291 95.475 34.3039 94.6245 33.4534C93.7456 32.5461 93.292 31.3554 93.292 29.8245C93.292 28.2936 93.7456 27.0745 94.6245 26.1957C95.475 25.3452 96.5523 24.9199 97.8848 24.9199C99.1889 24.9199 100.295 25.3452 101.145 26.1957ZM99.444 28.0101C99.0755 27.4714 98.5652 27.2163 97.8564 27.2163C97.1477 27.2163 96.609 27.4714 96.2688 27.9818C95.957 28.4354 95.8152 29.0307 95.8152 29.8245C95.8152 30.59 95.957 31.2137 96.2688 31.6673C96.609 32.1776 97.1477 32.4328 97.8564 32.4328C98.5652 32.4328 99.1038 32.1776 99.4724 31.6673C99.7843 31.2137 99.926 30.6183 99.926 29.8245C99.926 29.0874 99.7559 28.4921 99.444 28.0101Z" fill="#EF5600"/>
<path d="M109.707 34.6441H108.998C107.467 34.6441 106.191 34.1905 105.171 33.2549C104.15 32.3477 103.612 31.2137 103.612 29.8529C103.612 28.5204 104.122 27.3864 105.171 26.4508C106.191 25.5153 107.496 25.0617 108.998 25.0617H112.258L109.707 27.358H109.168C108.318 27.358 107.609 27.5848 107.014 28.0668C106.447 28.5488 106.135 29.1441 106.135 29.8529C106.135 30.5616 106.418 31.1286 107.014 31.6106C107.609 32.0925 108.318 32.3193 109.168 32.3193H109.707V34.6441Z" fill="#EF5600"/>
<path d="M112.032 34.6441V28.6905V27.358L114.583 25.0617H121.16L118.609 27.358H114.583V28.6905H118.609V30.9869H114.583V32.3193H118.609V34.6157H112.032V34.6441Z" fill="#EF5600"/>
<path d="M126.632 28.492C126.745 28.3503 126.802 28.2085 126.802 28.0101C126.802 27.8116 126.745 27.6415 126.632 27.5281C126.519 27.4147 126.377 27.358 126.178 27.358H123.372V34.6441H120.82V27.3864L123.372 25.09H126.632C127.397 25.09 128.049 25.3735 128.56 25.9122C129.07 26.4508 129.325 27.1596 129.325 28.0668C129.325 28.492 129.212 28.8606 129.013 29.1724C128.815 29.4843 128.531 29.7394 128.191 29.9095C128.503 29.9946 128.787 30.2214 128.985 30.5616C129.183 30.9018 129.297 31.2704 129.297 31.6956C129.297 32.5745 129.042 33.3116 128.503 33.8502C127.993 34.3889 127.341 34.6724 126.575 34.6724H123.882V32.376H126.093C126.292 32.376 126.434 32.3193 126.547 32.1776C126.66 32.0358 126.717 31.8941 126.717 31.6956C126.717 31.4972 126.66 31.3271 126.547 31.2137C126.434 31.1003 126.292 31.0436 126.093 31.0436H123.882V28.6905H126.093C126.377 28.6905 126.519 28.6338 126.632 28.492Z" fill="#EF5600"/>
<path d="M136.781 31.4405C136.073 32.0358 135.279 32.3193 134.4 32.3193H133.861V30.023H134.4C134.768 30.023 135.08 29.9096 135.335 29.6544C135.591 29.3993 135.732 29.0874 135.732 28.6905C135.732 28.2936 135.591 27.9817 135.335 27.7266C135.08 27.4714 134.768 27.358 134.4 27.358H133.266V34.6441H130.714V27.3864L133.266 25.09H134.428C135.307 25.09 136.101 25.4019 136.81 25.9972C137.632 26.706 138.029 27.6132 138.029 28.7188C138.029 29.8245 137.603 30.7317 136.781 31.4405Z" fill="#EF5600"/>
<path d="M146.959 26.1957C147.838 27.0745 148.292 28.2936 148.292 29.8245C148.292 31.3554 147.838 32.5461 146.959 33.4534C146.109 34.3039 145.031 34.7291 143.699 34.7291C142.366 34.7291 141.289 34.3039 140.439 33.4534C139.56 32.5461 139.106 31.3554 139.106 29.8245C139.106 28.2936 139.56 27.0745 140.439 26.1957C141.289 25.3452 142.366 24.9199 143.699 24.9199C145.031 24.9199 146.137 25.3452 146.959 26.1957ZM145.258 28.0101C144.89 27.4714 144.379 27.2163 143.671 27.2163C142.962 27.2163 142.423 27.4714 142.083 27.9818C141.771 28.4354 141.629 29.0307 141.629 29.8245C141.629 30.59 141.771 31.2137 142.083 31.6673C142.423 32.1776 142.962 32.4328 143.671 32.4328C144.379 32.4328 144.918 32.1776 145.286 31.6673C145.598 31.2137 145.74 30.6183 145.74 29.8245C145.74 29.0874 145.598 28.4921 145.258 28.0101Z" fill="#EF5600"/>
<path d="M155.549 34.6441H154.841C153.31 34.6441 152.034 34.1905 151.013 33.2549C149.993 32.3477 149.454 31.2137 149.454 29.8529C149.454 28.5204 149.964 27.3864 151.013 26.4508C152.034 25.5153 153.338 25.0617 154.841 25.0617H158.101L155.549 27.358H155.011C154.16 27.358 153.451 27.5848 152.856 28.0668C152.289 28.5488 151.977 29.1441 151.977 29.8529C151.977 30.5616 152.261 31.1286 152.856 31.6106C153.451 32.0925 154.16 32.3193 155.011 32.3193H155.549V34.6441Z" fill="#EF5600"/>
<path d="M157.137 27.358L159.688 25.0617H165.443L162.892 27.358H162.353V34.6441H159.802V27.3864H157.137V27.358Z" fill="#EF5600"/>
<path d="M170.972 31.4405C170.263 32.0358 169.469 32.3193 168.59 32.3193H168.052V30.023H168.59C168.959 30.023 169.271 29.9096 169.526 29.6544C169.781 29.3993 169.923 29.0874 169.923 28.6905C169.923 28.2936 169.781 27.9817 169.526 27.7266C169.271 27.4714 168.959 27.358 168.59 27.358H167.456V34.6441H164.905V27.3864L167.456 25.09H168.619C169.498 25.09 170.291 25.4019 171 25.9972C171.822 26.706 172.219 27.6132 172.219 28.7188C172.219 29.8245 171.822 30.7317 170.972 31.4405Z" fill="#EF5600"/>
<path d="M181.178 26.1957C182.057 27.0745 182.51 28.2936 182.51 29.8245C182.51 31.3554 182.057 32.5461 181.178 33.4534C180.327 34.3039 179.25 34.7291 177.918 34.7291C176.585 34.7291 175.508 34.3039 174.657 33.4534C173.778 32.5461 173.325 31.3554 173.325 29.8245C173.325 28.2936 173.778 27.0745 174.657 26.1957C175.508 25.3452 176.585 24.9199 177.918 24.9199C179.222 24.9199 180.327 25.3452 181.178 26.1957ZM179.477 28.0101C179.108 27.4714 178.598 27.2163 177.889 27.2163C177.18 27.2163 176.642 27.4714 176.302 27.9818C175.99 28.4354 175.848 29.0307 175.848 29.8245C175.848 30.59 175.99 31.2137 176.302 31.6673C176.642 32.1776 177.18 32.4328 177.889 32.4328C178.598 32.4328 179.137 32.1776 179.505 31.6673C179.817 31.2137 179.959 30.6183 179.959 29.8245C179.959 29.0874 179.789 28.4921 179.477 28.0101Z" fill="#EF5600"/>
<path d="M186.394 24.8632V29.0591L190.817 25.0617H193V34.6441H190.449V28.889L183.843 34.8425V31.2987V27.2163L186.394 24.8632ZM186.961 27.6132L189.796 25.0617H186.961V27.6132Z" fill="#EF5600"/>
<path d="M57.6382 11.3069C57.38 11.3069 56.8637 11.2785 56.376 10.9096C55.9744 10.5975 55.3434 10.3988 55.1139 10.484C54.9131 10.5123 54.827 10.6259 54.827 10.6259L54.5975 10.3988C54.5975 10.3988 54.5402 10.2853 54.3394 10.3421C54.1386 10.3988 53.9951 9.97317 54.2246 9.9448C54.4541 9.91642 54.3681 9.68941 54.3681 9.68941C54.3681 9.68941 53.9665 9.54752 54.0812 9.34888C54.1959 9.15024 54.6836 9.0651 54.741 8.80971C54.7983 8.55431 54.7983 8.58269 54.5402 8.72458C54.282 8.86647 53.9664 9.06511 53.9664 9.06511C53.9664 9.06511 53.6509 8.41243 53.9378 8.21379C54.2246 8.01515 54.741 8.21379 55.2573 8.21379C55.7736 8.21379 57.0358 8.18542 57.0358 8.18542L57.6956 8.72458L57.9538 8.46919C57.9538 8.46919 57.6382 8.21379 57.4087 8.21379C57.1792 8.24217 57.2366 8.10028 57.2366 8.10028C57.2366 8.10028 57.4087 7.78814 57.5808 7.703C57.7243 7.61787 59.1586 7.78813 59.302 7.67462C59.4454 7.56111 59.2159 7.02194 59.4167 6.8233C59.6175 6.62466 60.6502 6.22739 60.6502 6.76656C60.6502 7.30573 60.1626 7.5895 60.306 7.703C60.4494 7.81651 60.765 8.29892 61.0805 7.87326C61.396 7.4476 61.5395 6.93682 62.0558 6.76656C62.6008 6.59629 64.0638 6.68143 64.2359 7.19222C64.408 7.70301 63.863 8.32731 63.2032 8.46919C63.5475 8.80972 63.9778 9.46239 64.6662 9.8313C65.326 10.2002 65.4407 10.3705 65.4407 10.3705C65.4407 10.3705 64.9818 10.938 64.4941 10.938C65.2686 11.0799 64.8383 11.1366 65.5555 11.4204C64.867 11.6758 65.2399 11.761 64.867 11.6758C65.4407 11.9312 65.6415 12.3285 66.0144 12.3285C66.3873 12.3569 66.4734 12.3853 66.4734 12.3853C66.4734 12.3853 66.2152 12.7542 65.8136 12.8109C65.3834 12.8677 65.2973 12.7825 65.2973 12.7825C65.2973 12.7825 65.4407 12.9244 65.785 12.9528C66.1292 12.9812 66.0431 13.3217 66.875 13.5203C67.7069 13.6906 67.5635 13.5771 67.7356 13.6338C67.1332 14.0027 67.6782 14.3717 66.9324 14.4568C66.1866 14.5419 64.0351 14.5703 63.404 14.5135C62.773 14.4568 61.9984 14.8541 61.1092 15.223C60.2199 15.5919 59.4741 17.6067 58.9578 17.4932C58.4414 17.3513 58.1832 17.8621 57.8103 17.4932C57.4374 17.1243 58.0398 15.3365 58.0398 15.3365C58.0398 15.3365 56.8063 14.0028 57.1506 13.8041C57.9824 14.4568 57.6956 14.2581 57.6956 14.2581L58.0972 14.3149L58.3554 14.627H58.6422L59.1872 15.1662L59.7036 14.9392L59.9618 15.1662L59.847 14.627L60.1339 14.4284L59.6175 14.0595L59.5602 14.6554L59.2446 14.2581L59.0438 14.5135L58.9291 14.2581L58.5275 14.2865L58.5562 14.1163L58.3554 14.2298L58.0972 14.0028L57.9538 13.7757L57.7243 13.8325L57.4661 13.719V13.5771C57.4661 13.5771 57.0358 12.7258 56.5195 12.5839C56.0605 12.4704 55.8597 12.1299 55.5728 11.8177C55.1139 11.7042 54.9991 11.5056 54.5975 11.4772C54.368 11.4204 54.6549 11.2218 55.1999 11.1366C55.7736 11.0515 55.4868 11.1083 56.3187 11.2785C57.1506 11.4488 57.4087 11.6191 57.4948 11.5339L57.6382 11.3069ZM57.839 12.1015C57.9824 12.0447 58.4414 11.6474 58.384 11.2502C58.3267 10.8813 58.0398 10.7394 57.7816 10.484C57.5235 10.2286 57.3227 10.2002 57.5235 10.4272C57.7243 10.6542 58.1832 11.4204 57.839 11.7893C57.5235 12.1866 57.5235 12.2434 57.839 12.1015ZM58.1546 8.58269C57.9251 8.58269 57.7243 8.78133 57.7243 9.00835C57.7243 9.23537 57.9251 9.43401 58.1546 9.43401C58.384 9.43401 58.5848 9.23537 58.5848 9.00835C58.5848 8.78133 58.4127 8.58269 58.1546 8.58269ZM58.0398 8.69621C57.9251 8.69621 57.839 8.78134 57.839 8.89485C57.839 9.00836 57.9251 9.09348 58.0398 9.09348C58.1546 9.09348 58.2406 9.00836 58.2406 8.89485C58.2693 8.78134 58.1546 8.69621 58.0398 8.69621ZM61.5108 8.07191C61.1666 8.46919 62.5435 8.49756 62.6869 8.24216C62.8303 7.98677 63.4901 7.84488 63.1172 7.58949C62.7156 7.33409 62.4861 6.90844 61.5108 8.07191Z" fill="#EF5600"/>
<path d="M10.2408 12.4334C10.3268 12.5186 10.585 12.3483 11.4169 12.178C12.2488 12.0078 11.9619 11.951 12.5356 12.0362C13.1094 12.1213 13.3675 12.2916 13.138 12.3767C12.7364 12.4334 12.593 12.6321 12.1627 12.7456C11.8759 13.0861 11.6464 13.3983 11.2161 13.5118C10.6998 13.6537 10.2695 14.505 10.2695 14.505V14.6469L10.0113 14.7604L9.78182 14.7036L9.63839 14.9306L9.38022 15.1577L9.17942 15.0441L9.2081 15.2144L8.80651 15.186L8.69176 15.4414L8.49096 15.186L8.17542 15.5833L8.11805 14.9874L7.60171 15.3563L7.88856 15.5549L7.77382 16.0941L8.03199 15.8671L8.54833 16.0941L9.09336 15.5549H9.38022L9.63839 15.2428L10.04 15.186C10.04 15.186 9.75313 15.3563 10.585 14.732C10.9292 14.959 9.69576 16.2644 9.69576 16.2644C9.69576 16.2644 10.2982 18.0521 9.92524 18.421C9.55233 18.7899 9.29416 18.2792 8.77782 18.421C8.26148 18.5629 7.51565 16.5198 6.62639 16.1509C5.73714 15.8103 4.93394 15.3847 4.33154 15.4414C3.70045 15.4982 1.54903 15.4982 0.8032 15.3847C0.0573723 15.2995 0.602399 14.9306 0 14.5617C0.143428 14.505 0.0286857 14.6185 0.86057 14.4482C1.69246 14.278 1.6064 13.9091 1.95063 13.8807C2.32354 13.8523 2.43828 13.7104 2.43828 13.7104C2.43828 13.7104 2.35223 13.7672 1.92194 13.7388C1.49166 13.682 1.26217 13.3131 1.26217 13.3131C1.26217 13.3131 1.37691 13.2564 1.72114 13.2564C2.06537 13.228 2.29485 12.8591 2.86857 12.6037C2.49565 12.6605 2.86857 12.6037 2.18011 12.3483C2.89725 12.0645 2.49566 12.0078 3.24148 11.8659C2.78251 11.8375 2.29485 11.2983 2.29485 11.2983C2.29485 11.2983 2.4096 11.1281 3.06937 10.7592C3.72914 10.4187 4.15942 9.73761 4.53234 9.39708C3.87257 9.25519 3.32754 8.63089 3.49965 8.1201C3.67177 7.60931 5.13474 7.52418 5.67977 7.69445C6.22479 7.86471 6.33954 8.37549 6.65508 8.80115C6.97062 9.22681 7.25748 8.7444 7.42959 8.63089C7.57302 8.51738 7.08536 8.23361 7.08536 7.69445C7.08536 7.15528 8.11805 7.55255 8.31885 7.75119C8.51965 7.94983 8.29016 8.48899 8.43359 8.6025C8.57702 8.71601 10.0113 8.54576 10.1547 8.63089C10.2982 8.71602 10.499 9.02816 10.499 9.02816C10.499 9.02816 10.5563 9.17006 10.3268 9.14168C10.0974 9.1133 9.78182 9.39708 9.78182 9.39708L10.04 9.65247L10.6998 9.11331C10.6998 9.11331 11.9619 9.14168 12.4783 9.14168C12.9946 9.14168 13.511 8.94304 13.7978 9.14168C14.0847 9.34032 13.7691 9.993 13.7691 9.993C13.7691 9.993 13.4823 9.79435 13.1954 9.65247C12.9372 9.51058 12.9372 9.51058 12.9946 9.73759C13.052 9.99299 13.5396 10.0781 13.6544 10.2768C13.7691 10.4754 13.3675 10.6173 13.3675 10.6173C13.3675 10.6173 13.3102 10.8443 13.511 10.8727C13.7404 10.9011 13.597 11.3267 13.3962 11.27C13.1954 11.2132 13.138 11.3267 13.138 11.3267L12.9086 11.5537C12.9086 11.5537 12.8225 11.4402 12.6217 11.4119C12.3922 11.3551 11.7611 11.5254 11.3595 11.8375C10.8719 12.2348 10.3555 12.2348 10.0974 12.2348L10.2408 12.4334ZM9.89656 12.8024C9.55233 12.4334 10.0113 11.6389 10.2121 11.4402C10.4129 11.2132 10.2408 11.2416 9.95393 11.497C9.69576 11.7524 9.4089 11.8943 9.35153 12.2632C9.29416 12.6321 9.75313 13.0577 9.89656 13.1145C10.1834 13.2564 10.2121 13.1713 9.89656 12.8024ZM9.15073 9.993C9.15073 10.22 9.35153 10.4187 9.58102 10.4187C9.8105 10.4187 10.0113 10.22 10.0113 9.993C10.0113 9.76598 9.8105 9.56734 9.58102 9.56734C9.32285 9.59571 9.15073 9.76598 9.15073 9.993ZM9.46627 9.90787C9.46627 10.0214 9.55233 10.1065 9.66708 10.1065C9.78182 10.1065 9.86787 10.0214 9.86787 9.90787C9.86787 9.79436 9.78182 9.70922 9.66708 9.70922C9.58102 9.70922 9.46627 9.79436 9.46627 9.90787ZM4.64708 8.57413C4.27417 8.82953 4.93394 8.99979 5.07737 9.22681C5.2208 9.4822 6.56902 9.45383 6.25348 9.05655C5.24948 7.89308 5.02 8.31874 4.64708 8.57413Z" fill="#EF5600"/>
<path d="M53.8156 20.7737C53.5234 20.8871 53.202 20.9154 52.8514 20.2919C52.5008 19.6684 52.2086 19.6117 52.2086 19.6117C52.2086 19.6117 52.1794 20.1502 52.6177 20.5186C51.858 20.0652 51.7704 19.8101 51.4782 19.385C51.7411 20.2636 51.7996 20.462 51.7996 20.462C51.7996 20.462 51.6243 20.2636 51.0399 19.4984C50.4263 18.7332 50.514 18.6765 49.9004 17.4295C49.2576 16.1824 49.4913 16.7209 49.0239 15.9557C48.1181 15.5589 47.8843 15.3605 47.4169 14.9071C46.8033 14.9921 46.3942 14.9071 46.3942 14.9071C46.3942 14.9071 46.4527 14.5387 47.8551 14.1702C47.8551 14.1702 47.2415 14.1419 46.5695 13.575C47.7383 13.575 47.709 13.49 48.4103 13.6884C48.4395 13.405 47.5337 13.0649 47.5337 13.0649C47.5337 13.0649 48.9946 12.7531 50.4263 13.405C49.8127 13.1216 52.2671 14.7937 53.9033 16.7493L55.1012 17.2878L54.8967 16.8343L56.416 17.4861C56.416 17.4861 57.9061 17.2311 57.9354 16.7209C57.9354 16.7209 57.8185 17.8829 57.7893 18.138C57.7308 18.3931 58.7243 18.7048 58.7243 18.7048L59.1041 18.5064L59.6884 18.308L60.4189 18.1947L60.6234 17.7979L61.6753 16.4659L62.0843 16.0691L63.2238 15.7573L64.0712 15.644H65.5321C65.5321 15.644 66.1749 15.899 66.6716 15.7573C67.1975 15.6156 67.665 15.4456 67.665 15.4456L67.2851 15.9557C67.3728 16.3525 67.5189 16.7776 67.7819 17.146C68.1617 17.7129 67.665 18.3931 67.9572 18.8182C68.2493 19.2149 68.4539 20.3203 68.4539 20.8871C68.4539 21.4539 68.6584 21.5956 68.6584 21.5956L68.074 21.4256C68.074 21.4256 68.6 21.9074 68.5707 22.2758C68.2494 22.1341 68.2201 22.0491 68.2201 22.0491L68.2493 23.2111L67.8695 22.9843C67.8695 22.9843 67.7234 23.9763 68.0448 24.3731C67.665 24.0046 67.4605 23.9763 67.4605 23.9763C67.4605 23.9763 67.2267 27.9724 67.6942 29.5312C68.1909 31.09 68.6 33.4706 67.9864 34.746C67.2559 34.4626 67.0514 34.2358 67.0514 34.2358C67.0514 34.2358 67.5481 35.4262 68.074 36.248C68.6 37.0699 68.0156 37.1266 68.4247 37.325C67.928 37.2683 67.9279 37.2683 67.9279 37.2683L68.4831 38.2036L68.1033 38.2603C68.1033 38.2603 68.337 38.487 68.6 39.1105C68.2493 38.9405 68.2493 38.9405 68.2493 38.9405C68.2493 38.9405 68.7168 39.6773 68.6584 40.2725C68.6292 40.8393 68.3662 41.973 67.7526 43.3617C67.6065 43.6735 67.3436 44.5237 67.1683 45.0905C66.993 45.6574 66.058 45.9975 64.9769 45.9691C63.8959 45.9408 62.4349 45.629 61.9382 45.8274C61.4415 46.0258 60.8864 46.3942 60.8864 46.3942L60.9448 45.544C60.9448 45.544 60.6526 45.9124 60.0683 45.9124C60.302 45.2606 60.3605 44.8071 60.6234 44.6654C60.2728 44.6654 60.0391 44.5521 60.0391 44.5521C60.0391 44.5521 60.4189 43.9002 60.8864 43.5601C61.3539 43.22 62.844 43.6168 63.2238 43.05C63.6037 42.4831 63.516 42.3414 62.3765 40.8393C62.0259 40.2725 61.9675 40.0175 61.9675 40.0175L61.5876 40.3859C61.5876 40.3859 61.9382 40.5843 61.4708 39.3373C61.0033 38.0902 60.4481 37.7218 60.4189 36.5598C60.0683 36.8432 59.7761 37.6651 60.4481 38.6854C60.565 39.0255 60.5066 39.0538 60.2728 39.3373C60.0391 39.6207 59.7177 40.0741 59.5716 40.6126C59.4547 40.3292 59.3378 40.3292 59.3378 40.3292C59.3378 40.3292 59.2794 41.0094 59.3963 41.5195C58.9872 41.0094 58.9872 41.0094 58.9872 41.0094C58.9872 41.0094 58.8411 41.7179 58.1691 42.6248C58.0522 42.2281 58.0522 42.058 58.0522 42.058C58.0522 42.058 57.8769 42.9649 57.2926 43.9852C56.7082 45.0055 56.2115 45.4023 55.744 45.5723C55.2765 45.7424 54.6629 45.9691 52.2086 45.714C51.5658 45.6857 51.0983 45.7707 50.8062 46.1675C50.8062 45.9974 50.9815 45.3739 51.186 45.0055C50.2218 45.6574 50.4263 45.544 49.8127 45.714C49.9588 44.8638 50.6308 44.0136 50.6308 44.0136C50.6308 44.0136 50.2218 44.8071 49.316 44.4387C49.7835 43.9569 50.0465 43.8152 50.3679 43.3901C50.6893 42.9366 51.2736 42.8799 51.8288 42.9082C52.3839 42.9366 53.6403 43.1066 54.137 41.9163C54.6337 40.726 54.5169 39.3656 54.3708 38.1186C54.3415 37.4951 54.4292 36.8716 54.8383 36.0497C54.1955 37.0416 54.0494 37.0416 54.0494 37.0416C54.0494 37.0416 54.1955 36.9849 54.1955 35.6529C54.1955 34.3208 54.0494 33.9524 54.9551 32.6487C55.8609 31.3167 56.0654 30.7499 56.007 30.183C56.3576 30.8349 56.3868 31.0333 56.3868 31.0333C56.3868 31.0333 56.9712 29.8429 56.5329 28.3692C56.0654 26.8671 55.8609 26.6971 55.8609 26.6971C55.8609 26.6971 56.4452 26.7254 57.2341 26.8954C56.9419 26.6687 56.9419 26.5554 56.9419 26.5554L58.3444 26.6971L58.1399 26.3286C58.1399 26.3286 58.9872 26.7821 59.5424 26.3853C58.3152 25.9318 57.9354 25.6484 57.7308 25.5351C58.1399 25.9885 58.2275 26.0452 57.9354 26.357C57.6432 26.1302 57.351 25.8185 56.8251 26.0452C56.9712 26.5553 56.8251 26.4136 56.8251 26.4136C56.8251 26.4136 55.9778 26.4703 55.4518 25.7051C54.9259 24.9116 54.4292 25.0249 54.4292 25.0249C54.4292 25.0249 54.5753 25.5917 54.8383 25.7334C53.8741 25.45 53.056 25.5634 52.3547 24.0046C52.0041 23.8346 52.2378 23.7496 51.6827 24.4014C51.1276 25.0533 50.6308 24.5431 49.842 25.1099C49.7835 24.6281 50.0173 24.5431 50.0173 24.1747C49.2576 24.8549 49.2576 24.8265 48.8778 24.8265C49.2576 23.9763 49.3745 23.9196 49.4037 23.4378C48.7025 24.0897 48.235 24.033 48.235 24.033C48.235 24.033 49.2868 22.871 49.7543 22.1625C50.2218 21.4539 50.514 21.1705 51.3029 21.1138C52.0625 21.0571 53.9909 21.3972 54.3415 21.4539C54.5753 21.5106 58.7535 22.3892 58.6366 22.2191C58.5489 22.1341 59.9514 21.709 59.9514 21.709C59.9514 21.709 58.5197 22.2475 58.3152 22.1625C58.2275 22.1341 57.2926 21.9641 56.4745 21.7657C56.0654 21.6523 55.8609 21.3122 55.3934 21.1988C54.9259 21.0288 53.8156 20.7737 53.8156 20.7737ZM64.9185 23.0977L64.7724 22.6159L64.2757 23.8346L64.1296 23.6362L63.5745 24.2597L63.0777 25.3367L62.581 24.7982L62.0843 25.8752L61.8798 25.2516C61.8798 25.2516 61.8798 25.2516 61.5876 25.8752C61.2954 26.4987 60.3312 26.5554 60.3312 26.5554L61.237 26.8388C61.237 26.8388 61.6461 26.6971 61.8798 26.357C62.2304 26.8388 61.8798 27.3772 61.8798 27.3772C61.8798 27.3772 62.172 27.0371 62.3765 26.8954C62.581 26.7537 62.5226 26.2719 62.7271 25.6768C62.9317 26.357 63.1362 26.3003 62.9317 26.9521C63.1362 26.8104 63.6913 26.4136 63.5745 25.9318C63.4284 25.1099 64.0712 24.4298 64.0712 24.4298C64.0712 24.4298 64.0712 24.4297 63.9251 25.1666C64.3341 24.8832 64.7724 23.4661 64.7724 23.4661L64.9185 23.8629C64.9185 23.8629 65.3275 23.3244 65.5613 22.3042L64.9185 23.0977Z" fill="#EF5600"/>
<path d="M12.7717 21.1988C12.3237 21.3122 12.1556 21.6523 11.7355 21.7657C10.9514 21.9924 10.0552 22.1341 9.97121 22.1625C9.80318 22.2475 8.40292 21.709 8.40292 21.709C8.40292 21.709 9.71917 22.1341 9.66316 22.2191C9.55113 22.3892 13.5559 21.5106 13.7519 21.4539C14.088 21.3972 15.9363 21.0571 16.6645 21.1138C17.3926 21.1705 17.7007 21.4539 18.1487 22.1625C18.5968 22.871 19.605 24.033 19.605 24.033C19.605 24.033 19.1569 24.0897 18.4848 23.4378C18.5128 23.9196 18.6248 23.9763 18.9889 24.8265C18.6248 24.8265 18.6248 24.8549 17.8967 24.1747C17.8967 24.5431 18.1207 24.6565 18.0647 25.1099C17.3086 24.5715 16.8325 25.0533 16.3004 24.4014C15.7683 23.7496 15.9923 23.8346 15.6563 24.0046C14.9842 25.5634 14.228 25.45 13.2758 25.7334C13.5559 25.5917 13.6679 25.0249 13.6679 25.0249C13.6679 25.0249 13.1918 24.9116 12.6877 25.7051C12.1836 26.4987 11.3715 26.4136 11.3715 26.4136C11.3715 26.4136 11.2314 26.5554 11.3715 26.0452C10.8674 25.8185 10.5593 26.1019 10.3073 26.357C10.0272 26.0452 10.1112 25.9885 10.5033 25.5351C10.3073 25.6484 9.94321 25.9318 8.76699 26.3853C9.29909 26.7537 10.1112 26.3286 10.1112 26.3286L9.9152 26.6971L11.2595 26.5554C11.2595 26.5554 11.2595 26.6687 10.9794 26.8954C11.7075 26.7254 12.2957 26.6971 12.2957 26.6971C12.2957 26.6971 12.0996 26.8671 11.6515 28.3692C11.2034 29.8713 11.7916 31.0333 11.7916 31.0333C11.7916 31.0333 11.8196 30.8349 12.1556 30.183C12.0996 30.7499 12.2957 31.345 13.1638 32.6487C14.032 33.9808 13.8919 34.3492 13.8919 35.6529C13.8919 36.9849 14.032 37.0416 14.032 37.0416C14.032 37.0416 13.8639 37.0416 13.2478 36.0497C13.6119 36.8716 13.7239 37.4951 13.6959 38.1186C13.5559 39.3656 13.4719 40.726 13.92 41.9163C14.396 43.1067 15.6003 42.9366 16.1324 42.9083C16.6645 42.8799 17.2246 42.9366 17.5326 43.3901C17.8407 43.8435 18.0927 43.9569 18.5408 44.4387C17.6727 44.8071 17.2806 44.0136 17.2806 44.0136C17.2806 44.0136 17.9247 44.8638 18.0647 45.714C17.5046 45.544 17.7007 45.6574 16.7485 45.0055C16.9445 45.3739 17.1126 45.9975 17.1126 46.1675C16.8325 45.7991 16.3844 45.6857 15.7683 45.714C13.4159 45.9975 12.8277 45.7424 12.3797 45.5723C11.9316 45.4023 11.4835 45.0055 10.8954 43.9852C10.3353 42.9649 10.1673 42.058 10.1673 42.058C10.1673 42.058 10.1673 42.2281 10.0552 42.6249C9.41111 41.7179 9.27108 41.0094 9.27108 41.0094C9.27108 41.0094 9.27108 41.0094 8.87901 41.5195C9.01903 41.0094 8.93502 40.3292 8.93502 40.3292C8.93502 40.3292 8.79499 40.3292 8.71098 40.6126C8.57095 40.0741 8.26289 39.5923 8.03885 39.3373C7.81481 39.0538 7.7588 39.0255 7.87082 38.6854C8.51494 37.6651 8.23489 36.8149 7.89882 36.5598C7.87082 37.7218 7.33872 38.0902 6.89063 39.3373C6.44255 40.5843 6.77861 40.3859 6.77861 40.3859L6.41455 40.0175C6.41455 40.0175 6.35853 40.2442 6.02247 40.8393C4.95827 42.3414 4.84625 42.4548 5.21032 43.05C5.57439 43.6168 7.03066 43.22 7.45074 43.5601C7.89882 43.9002 8.26289 44.5521 8.26289 44.5521C8.26289 44.5521 8.03885 44.6654 7.70279 44.6654C7.98284 44.8071 8.01085 45.2889 8.23489 45.9124C7.67478 45.9124 7.39473 45.544 7.39473 45.544L7.45074 46.3942C7.45074 46.3942 6.91864 46.0258 6.44255 45.8274C5.96646 45.629 4.5662 45.9408 3.53 45.9691C2.49381 45.9975 1.59764 45.6574 1.42961 45.0905C1.26158 44.5237 0.981524 43.6735 0.869503 43.3617C0.253387 41.973 0.0293458 40.8677 0.00134052 40.2725C-0.0266647 39.7057 0.393415 38.9405 0.393415 38.9405C0.393415 38.9405 0.393413 38.9405 0.0573502 39.1105C0.281392 38.487 0.533441 38.2603 0.533441 38.2603L0.169372 38.2036L0.701472 37.2683C0.701472 37.2683 0.701473 37.2683 0.225383 37.325C0.617457 37.1266 0.0573511 37.0416 0.561446 36.2481C1.06554 35.4262 1.54163 34.2358 1.54163 34.2358C1.54163 34.2358 1.34559 34.4626 0.645462 34.746C0.0293466 33.4706 0.449426 31.09 0.925515 29.5312C1.4016 27.9724 1.14956 23.9763 1.14956 23.9763C1.14956 23.9763 0.953519 24.0046 0.589451 24.3731C0.897508 23.9763 0.757482 22.9843 0.757482 22.9843L0.393415 23.2111L0.421419 22.0491C0.421419 22.0491 0.393415 22.1624 0.0853572 22.2758C0.0573519 21.9074 0.561446 21.4256 0.561446 21.4256L0.00134052 21.5956C0.00134052 21.5956 0.197376 21.4539 0.197376 20.8871C0.197376 20.3203 0.393415 19.215 0.673467 18.8182C0.95352 18.4214 0.47743 17.7412 0.841498 17.146C1.06554 16.7776 1.23357 16.3808 1.31759 15.9557L0.95352 15.4456C0.95352 15.4456 1.4016 15.5873 1.9057 15.7573C2.40979 15.899 2.9979 15.644 2.9979 15.644H4.39817L5.21032 15.7573L6.30252 16.0691L6.6946 16.4659L7.70279 17.7979L7.89882 18.1947L8.59895 18.308L9.15906 18.5064L9.52313 18.7048C9.52313 18.7048 10.4753 18.3931 10.4193 18.138C10.3633 17.8829 10.2793 16.7209 10.2793 16.7209C10.3073 17.2311 11.7355 17.4861 11.7355 17.4861L13.1918 16.8343L12.9958 17.2878L14.144 16.7493C15.7123 14.7937 18.0647 13.1216 17.4766 13.405C18.8489 12.7531 20.2491 13.0649 20.2491 13.0649C20.2491 13.0649 19.381 13.4333 19.409 13.6884C20.0811 13.49 20.0531 13.5467 21.1733 13.5751C20.5292 14.1419 19.9411 14.1702 19.9411 14.1702C21.2853 14.5387 21.3413 14.9071 21.3413 14.9071C21.3413 14.9071 20.9493 14.9921 20.3612 14.9071C19.9131 15.3605 19.689 15.5589 18.8209 15.9557C18.3448 16.7209 18.5688 16.1824 17.9807 17.4295C17.3646 18.6765 17.4766 18.7332 16.8885 19.4984C16.3004 20.2636 16.1604 20.462 16.1604 20.462C16.1604 20.462 16.2164 20.2636 16.4684 19.385C16.1884 19.8101 16.1044 20.0652 15.3762 20.5187C15.7963 20.1502 15.7683 19.6117 15.7683 19.6117C15.7683 19.6117 15.4883 19.6684 15.1522 20.2919C14.8161 20.9154 14.5081 20.8871 14.228 20.7737C14.172 20.8587 13.0798 21.1138 12.7717 21.1988ZM2.91389 22.4459C3.10992 23.4662 3.53 24.0046 3.53 24.0046L3.67003 23.6079C3.67003 23.6079 4.0621 25.0249 4.48218 25.3083C4.34216 24.5715 4.34216 24.5715 4.34216 24.5715C4.34216 24.5715 4.95827 25.2516 4.81824 26.0735C4.67822 26.5553 5.21032 26.9521 5.43436 27.0938C5.23832 26.4136 5.43436 26.4703 5.6304 25.8185C5.82643 26.442 5.77043 26.8954 5.96646 27.0372C6.1625 27.1789 6.44255 27.5189 6.44255 27.5189C6.44255 27.5189 6.10649 26.9805 6.44255 26.4987C6.63859 26.8388 7.05867 26.9805 7.05867 26.9805L7.92683 26.6971C7.92683 26.6971 7.00266 26.6404 6.7226 26.0169C6.44255 25.3934 6.44255 25.3933 6.44255 25.3933L6.24651 26.0169L5.77042 24.9399L5.29434 25.4784L4.81824 24.4014L4.28615 23.7779L4.14612 23.9763L3.67003 22.7576L3.53 23.2394L2.91389 22.4459Z" fill="#EF5600"/>
</svg>
